<svg width="100" height="100" viewBox="0 0 100 100" fill="none" xmlns="http://www.w3.org/2000/svg">
<path d="M0 20C0 8.9543 8.95431 0 20 0H80C91.0457 0 100 8.95431 100 20V80C100 91.0457 91.0457 100 80 100H20C8.9543 100 0 91.0457 0 80V20Z" fill="#FF0000"/>
<path d="M48 64C48 61.2386 50.2386 59 53 59H63C65.7614 59 68 61.2386 68 64V74C68 76.7614 65.7614 79 63 79H53C50.2386 79 48 76.7614 48 74V64Z" fill="white"/>
<path d="M23 39C23 36.2386 25.2386 34 28 34H38C40.7614 34 43 36.2386 43 39V49C43 51.7614 40.7614 54 38 54H28C25.2386 54 23 51.7614 23 49V39Z" fill="white"/>
<path d="M57 39C57 36.2386 59.2386 34 62 34H72C74.7614 34 77 36.2386 77 39V49C77 51.7614 74.7614 54 72 54H62C59.2386 54 57 51.7614 57 49V39Z" fill="white"/>
<path d="M57 41V47H43V41H57Z" fill="white"/>
<path d="M52.5 59.0147L48.0823 63.0916L38.908 53.9178L42.9766 49.4865L52.5 59.0147Z" fill="white"/>
</svg>
